HIERARCHY
ROOT hip
{
	OFFSET 0.000000 0.000000 0.000000 
	CHANNELS 6 Xposition Yposition Zposition Xrotation Zrotation Yrotation
	JOINT abdomen
	{
		OFFSET 0.000000 3.402643 0.000000 
		CHANNELS 3 Xrotation Zrotation Yrotation
		JOINT chest
		{
			OFFSET 0.000000 8.438565 -0.680529 
			CHANNELS 3 Xrotation Zrotation Yrotation
			JOINT neck
			{
				OFFSET 0.000000 10.207942 -0.272212 
				CHANNELS 3 Xrotation Zrotation Yrotation
				JOINT head
				{
					OFFSET 0.000000 3.130431 0.000000 
					CHANNELS 3 Xrotation Zrotation Yrotation
					End Site
					{
						OFFSET 0.000000 3.130435 0.000000 
					}
				}
			}
			JOINT lCollar
			{
				OFFSET 3.470700 6.669187 -0.816635 
				CHANNELS 3 Yrotation Zrotation Xrotation
				JOINT lShldr
				{
					OFFSET 3.198488 0.000000 0.000000 
					CHANNELS 3 Zrotation Yrotation Xrotation
					JOINT lForeArm
					{
						OFFSET 10.139888 0.000000 0.000000 
						CHANNELS 3 Yrotation Zrotation Xrotation
						JOINT lHand
						{
							OFFSET 8.370511 0.000000 0.000000 
							CHANNELS 3 Zrotation Yrotation Xrotation
							End Site
							{
								OFFSET 4.083176 0.000000 0.000000 
							}
						}
					}
				}
			}
			JOINT rCollar
			{
				OFFSET -3.470700 6.669187 -0.816635 
				CHANNELS 3 Yrotation Zrotation Xrotation
				JOINT rShldr
				{
					OFFSET -3.198488 0.000000 0.000000 
					CHANNELS 3 Zrotation Yrotation Xrotation
					JOINT rForeArm
					{
						OFFSET -10.139888 0.000000 0.000000 
						CHANNELS 3 Yrotation Zrotation Xrotation
						JOINT rHand
						{
							OFFSET -8.370511 0.000000 0.000000 
							CHANNELS 3 Zrotation Yrotation Xrotation
							End Site
							{
								OFFSET -4.083176 0.000000 0.000000 
							}
						}
					}
				}
			}
		}
	}
	JOINT lThigh
	{
		OFFSET 5.308129 -1.633274 1.361059 
		CHANNELS 3 Xrotation Zrotation Yrotation
		JOINT lShin
		{
			OFFSET -2.041588 -20.007561 0.000000 
			CHANNELS 3 Xrotation Zrotation Yrotation
			JOINT lFoot
			{
				OFFSET 0.000000 -19.190928 -1.224953 
				CHANNELS 3 Xrotation Yrotation Zrotation
				End Site
				{
					OFFSET 0.000000 -2.449906 4.627600 
				}
			}
		}
	}
	JOINT rThigh
	{
		OFFSET -5.308129 -1.633274 1.361059 
		CHANNELS 3 Xrotation Zrotation Yrotation
		JOINT rShin
		{
			OFFSET 2.041588 -20.007561 0.000000 
			CHANNELS 3 Xrotation Zrotation Yrotation
			JOINT rFoot
			{
				OFFSET 0.000000 -19.190928 -1.224953 
				CHANNELS 3 Xrotation Yrotation Zrotation
				End Site
				{
					OFFSET 0.000000 -2.449906 4.627600 
				}
			}
		}
	}
}
MOTION
Frames: 15
Frame Time: 0.016667
-1.504157 52.513725 1.798985 -9.658258 -0.253150 4.423871 24.896799 6.504173 0.333871 3.907449 0.527025 -2.910162 -5.264075 -0.698134 0.085872 10.161772 -4.711718 2.664915 -18.304918 -9.881804 -0.512637 -68.234123 12.939413 -27.318569 -25.603539 -5.000000 26.438229 -16.262184 -2.633460 7.480870 15.035473 8.994348 -0.466787 65.928139 -7.382068 -18.251966 25.896463 5.000000 17.237125 7.390161 -30.000000 9.419877 13.640404 17.947599 2.952660 8.968898 -6.140577 -1.256673 -10.450378 2.802994 -10.656266 19.103571 -6.013767 -3.318530 4.583140 3.880235 0.405959 -11.635592 -16.486330 4.391885 
-1.511841 52.535442 1.759491 -9.540241 0.009735 4.550783 25.024380 6.552505 0.347369 3.880450 0.458704 -2.919936 -5.391348 -0.881593 0.113627 10.100430 -4.877783 2.606510 -18.324627 -9.901306 -0.513643 -68.394936 12.799969 -27.323404 -26.092026 -5.000000 26.032278 -16.270987 -2.873193 8.216280 15.014424 8.809053 -0.457200 65.900558 -7.154002 -17.814646 25.765316 5.000000 16.777395 7.296455 -30.000000 9.613701 12.918223 18.143570 2.433732 10.016849 -6.269659 -1.410177 -10.885941 2.335662 -11.453132 18.877228 -6.218166 -3.241391 4.771984 3.882801 0.390106 -11.650326 -16.787689 4.292393 
-1.502441 52.554668 1.720367 -9.432419 0.253061 4.677818 25.161940 6.640396 0.366560 3.863374 0.390389 -2.919942 -5.518464 -1.037546 0.127345 10.067852 -5.063371 2.548972 -18.354012 -9.911059 -0.514147 -68.557259 12.673243 -27.335190 -26.618811 -5.000000 25.600122 -16.259256 -3.132496 8.933304 14.993407 8.623760 -0.447608 65.846481 -6.925867 -17.377787 25.636467 5.000000 16.262581 7.177720 -30.000000 9.841789 12.186235 18.415848 1.955248 11.155409 -6.382808 -1.593661 -11.481949 1.826004 -12.225909 18.685419 -6.433713 -3.174945 4.973782 3.879299 0.434009 -11.702920 -17.007683 4.225627 
-1.493043 52.573898 1.681243 -9.324335 0.486565 4.804929 25.288965 6.719849 0.382201 3.836508 0.322073 -2.910179 -5.645792 -1.192037 0.150717 10.036077 -5.239213 2.490610 -18.383400 -9.920811 -0.514650 -68.719498 12.546560 -27.344358 -27.149542 -5.000000 25.175608 -16.253048 -3.388794 9.629086 14.982114 8.428712 -0.437505 65.802101 -6.681686 -16.938627 25.498274 5.000000 15.765564 7.054541 -30.000000 10.075596 11.452736 18.706970 1.467014 12.307819 -6.519605 -1.743590 -12.101768 1.285134 -13.001586 18.462692 -6.639304 -3.115943 5.200898 3.871439 0.440196 -11.742478 -17.264925 4.153975 
-1.445531 52.580700 1.649497 -9.251668 0.642183 4.892927 25.457949 6.836614 0.434858 3.828680 0.263511 -2.939432 -5.724239 -1.307905 0.168245 9.943634 -5.385638 2.471149 -18.394512 -9.888473 -0.522270 -68.883240 12.432536 -27.360580 -27.735863 -5.000000 24.755161 -16.171799 -3.626918 10.218603 15.001516 8.231138 -0.436733 65.701553 -6.441080 -16.487093 25.364006 5.000000 15.206350 6.860811 -30.000000 10.342096 10.810295 19.207132 1.267362 13.451094 -6.510463 -1.881035 -12.984896 0.941524 -13.238965 18.205324 -6.843256 -3.056689 5.559614 3.908744 0.467266 -11.897369 -17.437075 4.086449 
-1.398019 52.587486 1.617751 -9.179371 0.788029 4.981071 25.616524 6.966274 0.483485 3.811126 0.204950 -2.958971 -5.802723 -1.423774 0.185772 9.861472 -5.522310 2.452623 -18.404007 -9.859215 -0.520761 -69.048737 12.322010 -27.385330 -28.326334 -5.000000 24.344694 -16.095989 -3.869850 10.798635 15.019635 8.045840 -0.427130 65.603600 -6.203440 -16.046143 25.219090 5.000000 14.628896 6.661645 -30.000000 10.600347 10.123259 19.709202 1.019517 14.638817 -6.480013 -2.001444 -13.861203 0.587119 -13.554167 17.951843 -7.028480 -3.011707 5.923370 3.910880 0.532428 -12.053730 -17.678066 3.971903 
-1.330536 52.586273 1.592631 -9.129911 0.894951 5.049584 25.765524 7.086477 0.526358 3.822240 0.165911 -2.978507 -5.851843 -1.510675 0.198917 9.769220 -5.668743 2.433175 -18.423357 -9.839708 -0.519753 -69.173630 12.200793 -27.381527 -28.881311 -5.000000 23.941999 -16.006969 -4.105106 11.312178 15.028091 7.870297 -0.416691 65.481888 -5.967005 -15.638390 25.096294 5.000000 14.064792 6.438465 -30.000000 10.854701 9.540741 20.320986 0.921334 15.682579 -6.395660 -2.099971 -14.656966 0.470417 -13.441017 17.659029 -7.194547 -2.942010 6.392472 3.901275 0.546402 -12.207918 -17.881891 3.908312 
-1.243079 52.577042 1.574135 -9.094807 0.953260 5.088646 25.924337 7.237224 0.571099 3.842439 0.146391 -2.978509 -5.881346 -1.568609 0.207680 9.686832 -5.815180 2.414710 -18.442619 -9.810448 -0.518243 -69.259590 12.081594 -27.354698 -29.425039 -5.000000 23.527493 -15.896901 -4.355831 11.754073 15.036716 7.714257 -0.408624 65.344231 -5.715909 -15.259409 24.977140 5.000000 13.498369 6.208593 -30.000000 11.070183 9.030560 21.049185 1.004519 16.595516 -6.260393 -2.160388 -15.400719 0.477595 -12.941990 17.382204 -7.363068 -2.861184 6.940359 3.913320 0.576609 -12.420456 -18.081181 3.894925 
-1.155627 52.567806 1.555642 -9.068339 1.021272 5.137641 26.074829 7.362397 0.627762 3.862994 0.117112 -2.988277 -5.901055 -1.616887 0.214982 9.595185 -5.951861 2.395276 -18.470049 -9.784281 -0.507605 -69.347351 11.965950 -27.336540 -29.955963 -5.000000 23.135616 -15.800815 -4.606524 12.196692 15.034346 7.560753 -0.391205 65.198021 -5.474781 -14.876492 24.856823 5.000000 12.929716 5.967117 -30.000000 11.302454 8.534889 21.796192 1.093936 17.500835 -6.109888 -2.235232 -16.119986 0.444734 -12.493963 17.077175 -7.538033 -2.782095 7.492846 3.940704 0.608359 -12.588507 -18.232115 3.875634 
-1.022952 52.544476 1.551126 -9.067819 1.021225 5.166934 26.234489 7.491039 0.676179 3.892231 0.117110 -3.017574 -5.901202 -1.655510 0.220824 9.532077 -6.059190 2.395264 -18.450430 -9.774528 -0.507101 -69.321930 11.841345 -27.223660 -30.439199 -5.000000 22.732416 -15.704012 -4.788134 12.479177 15.044610 7.450943 -0.395004 65.019730 -5.244686 -14.544319 24.812252 5.000000 12.335225 5.771004 -30.000000 11.449160 8.211695 22.690834 1.411789 17.920366 -5.875403 -2.163896 -15.957827 0.550439 -11.340175 16.749313 -7.730713 -2.726280 8.220600 3.971192 0.681930 -12.860460 -18.347431 3.895798 
-0.890278 52.521141 1.546610 -9.077062 1.021178 5.196225 26.394953 7.616144 0.733917 3.921468 0.117108 -3.056636 -5.901315 -1.684477 0.225205 9.459201 -6.166518 2.396292 -18.440575 -9.764776 -0.506598 -69.294769 11.713260 -27.101917 -30.912910 -5.000000 22.345947 -15.609202 -4.970865 12.760764 15.043934 7.353417 -0.389957 64.842056 -5.021714 -14.208539 24.772984 5.000000 11.730663 5.566125 -30.000000 11.598013 7.900824 23.583242 1.749243 18.340118 -5.612633 -2.125741 -15.811512 0.649369 -10.224738 16.410147 -7.888596 -2.650976 8.940805 3.971711 0.754093 -13.107946 -18.556126 3.909271 
-0.734037 52.487732 1.550107 -9.078869 0.991924 5.245042 26.523867 7.721340 0.762263 3.969850 0.126864 -3.105464 -5.901469 -1.723099 0.231047 9.409223 -6.244663 2.376869 -18.422726 -9.771442 -0.516232 -69.227173 11.574243 -26.952490 -31.342525 -5.000000 21.964865 -15.504038 -5.145289 12.967823 15.032429 7.277933 -0.376565 64.661560 -4.824258 -13.927697 24.751686 5.000000 11.202473 5.404998 -30.000000 11.669496 7.665848 24.538765 2.125484 18.480959 -5.339579 -2.049963 -15.083054 0.594348 -9.013069 16.073265 -8.076425 -2.590607 9.716123 4.021816 0.823438 -13.409792 -18.695425 3.951854 
-0.554233 52.444252 1.561618 -9.083431 0.933502 5.293696 26.623438 7.857305 0.790081 4.027612 0.146378 -3.144524 -5.901587 -1.752066 0.235428 9.380716 -6.303339 2.347744 -18.393518 -9.781199 -0.516737 -69.090393 11.442798 -26.757481 -31.727589 -5.000000 21.589239 -15.367189 -5.303652 13.105671 15.002810 7.229171 -0.374039 64.476753 -4.639685 -13.695368 24.756350 5.000000 10.742593 5.275464 -30.000000 11.669560 7.478334 25.529024 2.545315 18.364456 -5.066287 -1.932801 -13.795467 0.558414 -7.663906 15.719962 -8.241068 -2.525187 10.529113 4.039491 0.884938 -13.746980 -18.857401 3.988544 
-0.374425 52.400776 1.573131 -9.098620 0.865352 5.352278 26.723761 7.971117 0.819290 4.075581 0.165890 -3.193350 -5.901446 -1.792150 0.231618 9.352270 -6.362016 2.318622 -18.362803 -9.803784 -0.508611 -68.962494 11.306265 -26.565104 -32.107925 -5.000000 21.231010 -15.232394 -5.474553 13.235634 14.973190 7.180410 -0.371514 64.291046 -4.449622 -13.455541 24.761318 5.000000 10.266052 5.160573 -30.000000 11.653996 7.341447 26.537714 2.962992 18.202858 -4.804496 -1.784648 -12.512385 0.524393 -6.335674 15.358994 -8.407293 -2.438852 11.337492 4.051805 0.925446 -14.070239 -19.035950 4.038391 
-0.137470 52.335907 1.598032 -9.100738 0.729147 5.420475 26.784395 8.125773 0.854545 4.094164 0.185399 -3.271472 -5.842970 -1.821117 0.235999 9.354280 -6.420737 2.279801 -18.325701 -9.839723 -0.519758 -68.768379 11.201492 -26.338707 -32.377960 -5.000000 20.867336 -15.087362 -5.540961 13.298760 14.964613 7.177887 -0.380874 64.092644 -4.363574 -13.330340 24.817324 5.000000 9.934121 5.116803 -30.000000 11.607738 7.291708 27.571613 3.338473 17.602160 -4.632694 -1.644741 -10.543932 0.209289 -5.341290 15.012018 -8.579945 -2.403332 12.171575 4.086634 1.039219 -14.415754 -19.213333 4.148348 
